<svg width="177" height="177" viewBox="0 0 177 177" fill="none" xmlns="http://www.w3.org/2000/svg">
<g clip-path="url(#clip0_15_6)">
<path d="M88.5 177C137.377 177 177 137.377 177 88.5C177 39.6228 137.377 0 88.5 0C39.6228 0 0 39.6228 0 88.5C0 137.377 39.6228 177 88.5 177Z" fill="#6A6A6A"/>
<path d="M143 79.771C142.724 79.5463 140.217 77.6622 134.928 77.6622C133.528 77.6622 132.128 77.7659 130.745 78.0252C129.725 70.9901 123.917 67.5677 123.658 67.4121L122.241 66.5824L121.307 67.9307C120.132 69.7456 119.285 71.7334 118.784 73.8422C117.833 77.8523 118.403 81.6205 120.443 84.8355C117.988 86.2011 114.03 86.5468 113.235 86.5641H47.8799C46.1686 86.5641 44.7858 87.9469 44.7858 89.6581C44.7167 95.3795 45.6847 101.066 47.6379 106.442C49.885 112.354 53.2383 116.692 57.5941 119.354C62.4686 122.344 70.4024 124.056 79.408 124.056C83.47 124.073 87.532 123.693 91.5249 122.949C97.0734 121.929 102.415 119.994 107.324 117.211C111.368 114.86 115.015 111.887 118.109 108.378C123.278 102.518 126.372 95.9845 128.671 90.1939H129.587C135.256 90.1939 138.748 87.9296 140.667 86.0282C141.946 84.8183 142.948 83.349 143.588 81.7069L143.985 80.5143L143 79.771ZM53.9297 84.68H62.6933C63.1081 84.68 63.4538 84.3343 63.4538 83.9194V76.1238C63.4538 75.709 63.1081 75.3633 62.6933 75.346H53.9297C53.5148 75.346 53.1691 75.6917 53.1691 76.1065V83.9194C53.1691 84.3516 53.5148 84.68 53.9297 84.68ZM66.012 84.68H74.7756C75.1904 84.68 75.5361 84.3343 75.5361 83.9194V76.1238C75.5361 75.709 75.1904 75.3633 74.7756 75.346H66.012C65.5799 75.346 65.2342 75.6917 65.2342 76.1238V83.9194C65.2342 84.3516 65.5799 84.68 66.012 84.68ZM78.2499 84.6973H87.0135C87.4283 84.6973 87.774 84.3516 87.774 83.9367V76.1411C87.774 75.7263 87.4283 75.3806 87.0135 75.3633H78.2499C77.8351 75.3633 77.4894 75.709 77.4894 76.1238V83.9367C77.4894 84.3516 77.8351 84.68 78.2499 84.6973ZM90.3668 84.6973H99.1304C99.5452 84.6973 99.8909 84.3516 99.9082 83.9367V76.1411C99.9082 75.709 99.5625 75.3633 99.1304 75.3633H90.3668C89.952 75.3633 89.6063 75.709 89.6063 76.1238V83.9367C89.6063 84.3516 89.9347 84.6973 90.3668 84.6973ZM65.9947 73.4619H74.7583C75.1731 73.4619 75.5188 73.1162 75.5188 72.6841V64.8885C75.5188 64.4736 75.1731 64.1279 74.7583 64.1279H65.9947C65.5626 64.1279 65.2342 64.4736 65.2169 64.8885V72.6841C65.2342 73.1162 65.5799 73.4619 65.9947 73.4619ZM78.2499 73.4619H87.0135C87.4283 73.4619 87.774 73.1162 87.774 72.6841V64.8885C87.774 64.4736 87.4283 64.1279 87.0135 64.1279H78.2499C77.8351 64.1279 77.4894 64.4736 77.4894 64.8885V72.6841C77.4894 73.1162 77.8351 73.4619 78.2499 73.4619ZM90.3668 73.4619H99.1304C99.5625 73.4619 99.8909 73.1162 99.9082 72.6841V64.8885C99.9082 64.4563 99.5625 64.1279 99.1304 64.1279H90.3668C89.952 64.1279 89.6063 64.4736 89.6063 64.8885V72.6841C89.6063 73.1162 89.9347 73.4619 90.3668 73.4619ZM90.3668 62.2438H99.1304C99.5625 62.2438 99.9082 61.8981 99.9082 61.466V53.6531C99.9082 53.2383 99.5625 52.8926 99.1304 52.8926H90.3668C89.952 52.8926 89.6063 53.2383 89.6063 53.6531V61.466C89.6063 61.8981 89.9347 62.2438 90.3668 62.2438ZM102.57 84.6973H111.334C111.749 84.6973 112.094 84.3516 112.094 83.9367V76.1411C112.094 75.709 111.749 75.3806 111.334 75.3633H102.57C102.155 75.3633 101.81 75.709 101.81 76.1238V83.9367C101.81 84.3516 102.155 84.6973 102.57 84.6973Z" fill="white"/>
</g>
<defs>
<clipPath id="clip0_15_6">
<rect width="177" height="177" fill="white"/>
</clipPath>
</defs>
</svg>
