<svg width="199" height="199" viewBox="0 0 199 199" fill="none" xmlns="http://www.w3.org/2000/svg">
<path d="M26.9302 160.446L28.1338 158.761L85.058 50.7489L85.1782 49.6053L60.0855 2.47069C57.9821 -1.47756 52.0631 -0.479158 51.3737 3.9408L26.9302 160.446Z" fill="#0A0A0A"/>
<path d="M27.6406 159.162L28.5505 157.386L84.8789 50.5058L59.848 3.17951C57.7678 -0.727351 52.4849 0.268782 51.8023 4.64225L27.6406 159.162Z" fill="#0A0A0A"/>
<g filter="url(#filter0_i_15_9)">
<path d="M27.6406 159.162L28.5505 157.386L84.8789 50.5058L59.848 3.17951C57.7678 -0.727351 52.4849 0.268782 51.8023 4.64225L27.6406 159.162Z" fill="white"/>
</g>
<path d="M103.471 85.2582L122.155 66.1235L103.466 30.4453C101.692 27.0679 96.7384 27.0577 94.9831 30.4453L84.9974 49.4875V51.109L103.471 85.2582H103.471Z" fill="#0A0A0A"/>
<path d="M103.138 84.461L121.303 65.8582L103.138 31.2702C101.413 27.987 97.2231 27.6428 95.5166 30.9357L85.4787 50.2739L85.1782 51.2626L103.138 84.461V84.461Z" fill="#0A0A0A"/>
<g filter="url(#filter1_i_15_9)">
<path d="M103.138 84.461L121.303 65.8582L103.138 31.2702C101.413 27.987 97.2231 27.6428 95.5166 30.9357L85.4787 50.2739L85.1782 51.2626L103.138 84.461V84.461Z" fill="white"/>
</g>
<path d="M26.9302 160.446L27.4756 159.897L29.4576 159.092L102.298 86.5224L103.221 84.0103L85.0501 49.3843L26.9302 160.446Z" fill="#6A6A6A"/>
<path d="M105.805 197.045L171.727 160.279L152.902 44.3407C152.313 40.7133 147.863 39.2795 145.267 41.8801L26.9302 160.446L92.4743 197.042C94.5116 198.179 96.806 198.777 99.1393 198.777C101.473 198.778 103.767 198.181 105.805 197.045Z" fill="#6A6A6A"/>
<path d="M171.137 159.971L152.454 44.9128C151.87 41.3126 148.169 39.8232 145.593 42.4046L27.6616 160.221L92.4862 196.453C94.508 197.582 96.7849 198.175 99.1004 198.176C101.416 198.176 103.693 197.584 105.715 196.457L171.137 159.97L171.137 159.971Z" fill="#D8D8D8"/>
<path d="M105.805 195.961C103.767 197.098 101.472 197.694 99.1391 197.693C96.8059 197.693 94.5116 197.096 92.4744 195.958L27.4581 159.889L26.9308 160.446L92.4744 197.042C94.5116 198.179 96.806 198.777 99.1394 198.777C101.473 198.778 103.767 198.181 105.805 197.045L171.727 160.279L171.566 159.286L105.805 195.962L105.805 195.961Z" fill="#0A0A0A"/>
<defs>
<filter id="filter0_i_15_9" x="27.6406" y="0.737915" width="57.2383" height="158.424" filterUnits="userSpaceOnUse" color-interpolation-filters="sRGB">
<feFlood flood-opacity="0" result="BackgroundImageFix"/>
<feBlend mode="normal" in="SourceGraphic" in2="BackgroundImageFix" result="shape"/>
<feColorMatrix in="SourceAlpha" type="matrix" values="0 0 0 0 0 0 0 0 0 0 0 0 0 0 0 0 0 0 127 0" result="hardAlpha"/>
<feOffset/>
<feGaussianBlur stdDeviation="39.886"/>
<feComposite in2="hardAlpha" operator="arithmetic" k2="-1" k3="1"/>
<feColorMatrix type="matrix" values="0 0 0 0 0 0 0 0 0 0 0 0 0 0 0 0 0 0 0.06 0"/>
<feBlend mode="normal" in2="shape" result="effect1_innerShadow_15_9"/>
</filter>
<filter id="filter1_i_15_9" x="85.1782" y="12.676" width="38.4037" height="71.7851" filterUnits="userSpaceOnUse" color-interpolation-filters="sRGB">
<feFlood flood-opacity="0" result="BackgroundImageFix"/>
<feBlend mode="normal" in="SourceGraphic" in2="BackgroundImageFix" result="shape"/>
<feColorMatrix in="SourceAlpha" type="matrix" values="0 0 0 0 0 0 0 0 0 0 0 0 0 0 0 0 0 0 127 0" result="hardAlpha"/>
<feOffset dx="2.2792" dy="-20.5128"/>
<feGaussianBlur stdDeviation="7.97721"/>
<feComposite in2="hardAlpha" operator="arithmetic" k2="-1" k3="1"/>
<feColorMatrix type="matrix" values="0 0 0 0 0 0 0 0 0 0 0 0 0 0 0 0 0 0 0.09 0"/>
<feBlend mode="normal" in2="shape" result="effect1_innerShadow_15_9"/>
</filter>
</defs>
</svg>
