<svg width="154" height="154" viewBox="0 0 154 154" fill="none" xmlns="http://www.w3.org/2000/svg">
<g clip-path="url(#clip0_15_20)">
<path d="M71.9624 0.120261C71.6316 0.150336 70.5789 0.255599 69.6316 0.330787C47.7819 2.30071 27.3158 14.0902 14.3534 32.2105C7.13533 42.2857 2.51879 53.7142 0.774432 65.8195C0.157891 70.0451 0.0827026 71.2932 0.0827026 77.0225C0.0827026 82.7518 0.157891 84 0.774432 88.2255C4.95488 117.113 25.5113 141.383 53.391 150.376C58.3835 151.985 63.6466 153.083 69.6316 153.744C71.9624 154 82.0376 154 84.3684 153.744C94.6992 152.601 103.451 150.045 112.083 145.639C113.406 144.962 113.662 144.782 113.481 144.632C113.361 144.541 107.722 136.977 100.955 127.835L88.6541 111.218L73.2406 88.406C64.7594 75.8646 57.7819 65.609 57.7218 65.609C57.6616 65.5939 57.6015 75.7293 57.5714 88.1052C57.5263 109.774 57.5113 110.647 57.2406 111.158C56.8496 111.895 56.5489 112.195 55.9173 112.526C55.4361 112.767 55.015 112.812 52.7444 112.812H50.1428L49.4511 112.376C49 112.09 48.6692 111.714 48.4436 111.278L48.1278 110.601L48.1579 80.4511L48.203 50.2857L48.6692 49.6992C48.9098 49.3834 49.421 48.9774 49.7819 48.7819C50.3985 48.4812 50.6391 48.4511 53.2406 48.4511C56.3083 48.4511 56.8195 48.5714 57.6165 49.4436C57.8421 49.6842 66.188 62.2556 76.1729 77.3985C86.1579 92.5413 99.812 113.218 106.519 123.368L118.699 141.82L119.316 141.414C124.774 137.865 130.549 132.812 135.12 127.549C144.85 116.376 151.12 102.752 153.226 88.2255C153.842 84 153.917 82.7518 153.917 77.0225C153.917 71.2932 153.842 70.0451 153.226 65.8195C149.045 36.9323 128.489 12.6616 100.609 3.66913C95.6917 2.07515 90.4586 0.977404 84.594 0.31575C83.1504 0.165374 73.2105 -3.98118e-05 71.9624 0.120261ZM103.451 46.6466C104.173 47.0075 104.759 47.6992 104.97 48.421C105.09 48.812 105.12 57.1729 105.09 76.015L105.045 103.053L100.278 95.7443L95.4962 88.4361V68.7819C95.4962 56.0752 95.5564 48.9323 95.6466 48.5864C95.8872 47.7443 96.4135 47.0827 97.1353 46.6917C97.7519 46.3759 97.9774 46.3458 100.338 46.3458C102.564 46.3458 102.955 46.3759 103.451 46.6466Z" fill="#6A6A6A"/>
<path d="M117.947 142.15C117.421 142.481 117.256 142.707 117.722 142.451C118.053 142.256 118.594 141.85 118.504 141.835C118.459 141.835 118.203 141.985 117.947 142.15ZM116.91 142.827C116.639 143.038 116.639 143.053 116.97 142.887C117.15 142.797 117.301 142.692 117.301 142.662C117.301 142.541 117.226 142.571 116.91 142.827ZM116.158 143.278C115.887 143.489 115.887 143.504 116.218 143.338C116.398 143.248 116.549 143.143 116.549 143.113C116.549 142.992 116.474 143.023 116.158 143.278ZM115.406 143.729C115.135 143.94 115.135 143.955 115.466 143.789C115.647 143.699 115.797 143.594 115.797 143.564C115.797 143.444 115.722 143.474 115.406 143.729ZM114.263 144.331C113.692 144.632 113.722 144.752 114.293 144.466C114.549 144.331 114.744 144.195 114.744 144.165C114.744 144.06 114.729 144.075 114.263 144.331Z" fill="black"/>
</g>
<defs>
<clipPath id="clip0_15_20">
<rect width="154" height="154" fill="white"/>
</clipPath>
</defs>
</svg>
