<svg width="290" height="319" viewBox="0 0 290 319" fill="none" xmlns="http://www.w3.org/2000/svg">
<g clip-path="url(#clip0_15_27)">
<path d="M131.948 4.04966C139.833 -0.458191 150.103 -0.478553 157.981 4.04966C197.616 26.4181 237.262 48.7515 276.889 71.1336C284.343 75.3269 289.328 83.6119 289.252 92.1898V226.767C289.308 235.7 283.83 244.183 275.966 248.282C236.463 270.527 196.979 292.799 157.482 315.044C149.434 319.64 138.958 319.286 131.161 314.313C119.318 307.456 107.454 300.633 95.61 293.782C93.1897 292.341 90.4613 291.194 88.7523 288.85C90.2631 286.816 92.9643 286.563 95.1592 285.675C100.103 284.105 104.643 281.584 109.185 279.139C110.333 278.353 111.735 278.654 112.836 279.357C122.964 285.157 133.002 291.125 143.163 296.869C145.331 298.119 147.526 296.46 149.378 295.428C188.144 273.545 226.957 251.744 265.716 229.854C267.152 229.164 267.946 227.642 267.829 226.07C267.856 181.676 267.836 137.274 267.843 92.8799C268.007 91.0971 266.974 89.458 265.36 88.7283C225.993 66.585 186.647 44.4077 147.287 22.2587C146.605 21.7904 145.797 21.5392 144.969 21.538C144.142 21.5368 143.333 21.7856 142.65 22.2519C103.29 44.4077 63.9503 66.6053 24.5903 88.7476C22.982 89.4783 21.9027 91.0903 22.0941 92.8799C22.1009 137.274 22.0941 181.676 22.0941 226.077C22.0258 226.844 22.1944 227.613 22.5771 228.281C22.9598 228.949 23.5383 229.484 24.2346 229.813C34.738 235.762 45.255 241.67 55.7652 247.598C61.6863 250.781 68.9562 252.673 75.4798 250.234C81.2366 248.172 85.2719 242.304 85.1621 236.199C85.2164 192.064 85.1349 147.922 85.2029 103.794C85.059 101.834 86.9198 100.216 88.8271 100.4C93.8738 100.366 98.9273 100.332 103.974 100.414C106.081 100.366 107.53 102.476 107.27 104.45C107.249 148.864 107.324 193.28 107.236 237.695C107.249 249.531 102.38 262.411 91.4184 268.203C77.9137 275.191 61.2219 273.709 47.8803 267.009C36.3304 261.251 25.3083 254.456 13.9634 248.287C6.07962 244.211 0.628585 235.695 0.68408 226.768V92.1898C0.601403 83.4343 5.78515 74.9989 13.4707 70.8666C52.9678 48.6033 92.4581 26.3231 131.948 4.04966Z" fill="#6A6A6A"/>
<path d="M166.405 97.2723C183.632 96.1648 202.073 96.6162 217.575 105.092C229.577 111.588 236.23 125.22 236.442 138.538C236.107 140.334 234.227 141.325 232.51 141.202C227.512 141.195 222.513 141.269 217.515 141.168C215.395 141.249 214.162 139.297 213.896 137.424C212.46 131.052 208.981 124.741 202.976 121.668C193.758 117.058 183.07 117.29 173.019 117.386C165.681 117.775 157.79 118.41 151.573 122.72C146.801 125.985 145.351 132.575 147.054 137.883C148.66 141.694 153.065 142.923 156.669 144.057C177.429 149.48 199.428 148.94 219.791 156.077C228.222 158.986 236.469 164.642 239.355 173.459C243.13 185.276 241.475 199.4 233.058 208.886C226.232 216.693 216.29 220.941 206.375 223.249C193.184 226.187 179.495 226.261 166.099 224.957C153.502 223.523 140.394 220.217 130.67 211.645C122.354 204.434 118.293 193.197 118.696 182.353C118.792 180.521 120.618 179.244 122.375 179.394C127.408 179.354 132.441 179.34 137.474 179.401C139.484 179.258 140.975 180.993 141.078 182.885C142.007 188.957 144.291 195.329 149.591 198.928C159.821 205.52 172.656 205.068 184.369 205.253C194.073 204.823 204.966 204.693 212.885 198.287C217.063 194.633 218.301 188.52 217.172 183.261C215.948 178.821 211.298 176.752 207.305 175.399C186.811 168.924 164.566 171.273 144.271 163.951C136.031 161.043 128.064 155.544 124.898 147.089C120.481 135.124 122.505 120.323 131.805 111.157C140.872 102.039 153.961 98.529 166.405 97.2723Z" fill="#6A6A6A"/>
</g>
<defs>
<clipPath id="clip0_15_27">
<rect width="290" height="319" fill="white"/>
</clipPath>
</defs>
</svg>
