<svg width="164" height="115" viewBox="0 0 164 115" fill="none" xmlns="http://www.w3.org/2000/svg">
<path d="M159.865 17.8494C157.984 10.8199 152.459 5.29569 145.429 3.41397C132.701 1.02193e-06 81.6393 0 81.6393 0C81.6393 0 30.5779 1.02193e-06 17.8494 3.41397C10.8199 5.29569 5.29569 10.8199 3.41397 17.8494C1.02193e-06 30.5779 0 57.1504 0 57.1504C0 57.1504 1.02193e-06 83.723 3.41397 96.4516C5.29569 103.481 10.8199 109.005 17.8494 110.887C30.5779 114.301 81.6393 114.301 81.6393 114.301C81.6393 114.301 132.701 114.301 145.429 110.887C152.459 109.005 157.984 103.481 159.865 96.4516C163.279 83.723 163.279 57.1504 163.279 57.1504C163.279 57.1504 163.265 30.5779 159.865 17.8494Z" fill="#6A6A6A"/>
<path d="M65.296 81.6416L107.715 57.1527L65.296 32.6633V81.6416Z" fill="#D8D8D8"/>
</svg>
